# xmcd
#
# Track frame offsets:
#	150
#	18007
#	32132
#	49067
#	62444
#	81882
#	100232
#	114545
#	132218
#	148209
#	163954
#	180462
#	195511
#	211971
#	230612
#
# Disc length: 3261
#
# Revision: 1
# Processed by: cddbd v1.5.1PL0 Copyright (c) Steve Scherf et al.
# Submitted via: CDex 1.50
# Normalized: r0:DSETVAR1
#
DISCID=cb0cbb0f
DTITLE=Various Artist - Schmetterlinge im Bauch [CD 2)
DYEAR=2000
DGENRE=Jazz
TTITLE0=Drafi Deutscher - Wenn man liebt
TTITLE1=Christina Falk - Traumboy
TTITLE2=Jurgen Renfordt - Lust auf Gefühl
TTITLE3=Gaby Baginsky - Roderich
TTITLE4=Sabine B. - Supermann
TTITLE5=Ireen Sheer - Laß dich fallen
TTITLE6=Christl Prager and Das Rudy Bauer Ensemble - So ein Mann
TTITLE7=Oliver Frank - Italienische Sehnsucht
TTITLE8=Ulla Norden - Ich bin verliebt in den eigenen Mann
TTITLE9=Strom and Nixe - Bevor wir den Mut verlier'n
TTITLE10=Angie van Bürg and Jürgen Westphal - Je t'aime mon amour
TTITLE11=Sandy Wagner - Gewonnen, zerronnen
TTITLE12=Sünke - Das kannst du mir nicht verbieten
TTITLE13=Diana Leonhardt - Ich bin kein Spielzeug
TTITLE14=Angie van Bürg and Jürgen Westphal - Wir sind verrückt (wir beide) (greatest lover)
EXTD=YEAR: 2000
EXTT0=
EXTT1=
EXTT2=
EXTT3=
EXTT4=
EXTT5=
EXTT6=
EXTT7=
EXTT8=
EXTT9=
EXTT10=
EXTT11=
EXTT12=
EXTT13=
EXTT14=
PLAYORDER=
